<svg id="Camada_1" data-name="Camada 1" xmlns="http://www.w3.org/2000/svg" viewBox="0 0 64 64"><defs><style>.cls-1{fill:#fff;}</style></defs><path class="cls-1" d="M20.19,23.27c.15-.18.29-.37.46-.54a10.47,10.47,0,0,1,7.94-3.25,10.79,10.79,0,0,1,6,1.52,8.28,8.28,0,0,1,3.34,4.25H53.05A21.57,21.57,0,0,0,45.1,11.41q-6.47-5.1-16.51-5.1A28.47,28.47,0,0,0,14.92,9.48,22.72,22.72,0,0,0,5.7,18.41a24,24,0,0,0-2.08,4.86H20.19Z"/><path class="cls-1" d="M53.29,42.87V38H38.14q-1.72,6.51-9.55,6.5a10.48,10.48,0,0,1-7.9-3.25Q17.56,38,17.56,32a17.31,17.31,0,0,1,.56-4.56C-3.49,33.05,4.38,57.69,28.59,57.69q10.27,0,16.63-5v5H60.38V42.87Z"/></svg>